<?xml version="1.0" encoding="utf-8"?>
<!-- Generator: Adobe Illustrator 21.0.0, SVG Export Plug-In . SVG Version: 6.00 Build 0)  -->
<svg version="1.1" id="Layer_1" xmlns="http://www.w3.org/2000/svg" xmlns:xlink="http://www.w3.org/1999/xlink" x="0px" y="0px"
	 width="195px" height="66px" viewBox="0 0 195 66" style="enable-background:new 0 0 195 66;" xml:space="preserve">
<style type="text/css">
	.st0{clip-path:url(#SVGID_2_);fill:#FFFFFF;}
	.st1{fill:#FFFFFF;}
	.st2{clip-path:url(#SVGID_4_);}
</style>
<g>
	<g>
		<defs>
			<path id="SVGID_1_" d="M171.1,20.2v4.3c0,0.4,0.4,0.8,0.8,0.8c0.4,0,0.6-0.4,0.6-0.9v-4.2c0,0,0-0.6-0.7-0.6
				S171.1,20.2,171.1,20.2 M185.3,20.2L185.3,20.2l-0.7,1.8c0,0,0,0,0,0l-0.7-1.8l0,0c0,0-0.4-0.6-1.1-0.6c-0.7,0-0.7,0.6-0.7,0.6
				c0,0,0,0,0,0l1.7,4.5c0.1,0.3,0.4,0.5,0.8,0.5c0.4,0,0.7-0.2,0.8-0.5l1.7-4.6c0,0,0.1-0.6-0.7-0.6
				C185.7,19.5,185.3,20.2,185.3,20.2 M168.5,10.8c-0.4,0-0.8,0.3-0.9,0.7c-0.1,0.5,0.3,1,0.8,1h2.6c0,0,0,0,0,0v5.8
				c0,0,0,0.5,0.7,0.5c0.7,0,0.7-0.5,0.7-0.5v0v-5.8c0,0,0,0,0,0h3.1c0.4,0,0.8-0.3,0.9-0.7c0.1-0.5-0.3-1-0.8-1
				C175.7,10.8,168.5,10.8,168.5,10.8z M179.1,11.6c0,0.1,0,0.2,0.1,0.3l2.4,6.5c0,0,0,0,0,0c0,0,0.3,0.5,1.2,0.5
				c0.9,0,0.6-0.5,0.6-0.5l-2.6-7.1c-0.1-0.3-0.4-0.6-0.8-0.6C179.5,10.7,179.1,11.1,179.1,11.6 M188.5,11.3l-2.6,7.1
				c0,0-0.1,0.5,0.6,0.5c0.7,0,1.2-0.5,1.2-0.5c0,0,0,0,0,0l2.4-6.5c0-0.1,0.1-0.2,0.1-0.3c0-0.5-0.4-0.9-0.9-0.9
				C189,10.7,188.7,11,188.5,11.3"/>
		</defs>
		<clipPath id="SVGID_2_">
			<use xlink:href="#SVGID_1_"  style="overflow:visible;"/>
		</clipPath>
		<rect x="167.6" y="10.7" class="st0" width="22.6" height="14.5"/>
	</g>
</g>
<path class="st1" d="M188.2,30.8v1h-18.8c-2.9,0-5.3-2.4-5.3-5.3V9.6c0-2.9,2.4-5.3,5.3-5.3h18.8c2.9,0,5.3,2.4,5.3,5.3v16.8
	c0,2.9-2.4,5.3-5.3,5.3V30.8v-1c1.8,0,3.3-1.5,3.3-3.3V9.6c0-1.8-1.5-3.3-3.3-3.3h-18.8c-1.8,0-3.3,1.5-3.3,3.3v16.8
	c0,1.8,1.5,3.3,3.3,3.3h18.8V30.8z"/>
<g>
	<g>
		<defs>
			<path id="SVGID_3_" d="M2,55.9v6.8c0,0.3,0.1,0.5,0.3,0.6h1.1c0.2-0.2,0.3-0.4,0.3-0.6v-6.8c0-0.5-0.4-0.9-0.9-0.9
				C2.4,55,2,55.4,2,55.9 M118.3,55.9v6.8c0,0.3,0.1,0.5,0.3,0.6h13.2c0.2-0.2,0.3-0.4,0.3-0.6c0-0.5-0.4-0.9-0.9-0.9H120v-6
				c0-0.5-0.4-0.9-0.9-0.9S118.3,55.4,118.3,55.9 M83.7,55.2v7.5c0,0.3,0.1,0.5,0.3,0.6h1.1c0.2-0.2,0.3-0.4,0.3-0.6v-7.5
				c0-0.5-0.4-0.9-0.9-0.9C84.1,54.4,83.7,54.8,83.7,55.2 M25.6,55.1v6.8h-4.4c-0.5,0-0.9,0.4-0.9,0.9c0,0.3,0.1,0.5,0.3,0.6h11.6
				c0.2-0.2,0.3-0.4,0.3-0.6c0-0.5-0.4-0.9-0.9-0.9h-4.4v-6.8c0-0.5-0.4-0.9-0.9-0.9C26,54.2,25.6,54.6,25.6,55.1 M66.1,55.1v6.8
				h-4.4c-0.5,0-0.9,0.4-0.9,0.9c0,0.3,0.1,0.5,0.3,0.6h11.6c0.2-0.2,0.3-0.4,0.3-0.6c0-0.5-0.4-0.9-0.9-0.9h-4.4v-6.8
				c0-0.5-0.4-0.9-0.9-0.9S66.1,54.6,66.1,55.1 M96.8,54.2c-0.3,0-0.7,0.2-0.8,0.5l-3.3,7.6c-0.2,0.4-0.1,0.7,0.2,1h1.1
				c0.1-0.1,0.2-0.2,0.2-0.3l3.1-7.1H109l2.7,7.1c0.1,0.1,0.1,0.2,0.2,0.3h1.1c0.3-0.2,0.4-0.6,0.2-1l-2.9-7.6
				c-0.1-0.3-0.4-0.6-0.8-0.6C109.6,54.2,96.8,54.2,96.8,54.2z M49.4,51c-0.5,0-0.9,0.4-0.9,0.9c0,0.5,0.4,0.9,0.9,0.9h4.5v9.8
				c0,0.4,0.2,0.7,0.6,0.8h0.6c0.3-0.1,0.6-0.4,0.6-0.8V51.9c0-0.5-0.4-0.9-0.9-0.9L49.4,51L49.4,51z M36.4,51.5
				c0,5.9,3.5,10.8,8.1,11.9h3.7c1.5-0.4,2.7-1.2,3.7-1.9l0.2-0.1c0.4-0.3,0.5-0.8,0.2-1.2c-0.3-0.4-0.8-0.5-1.2-0.2L50.9,60
				c-1.2,0.9-2.6,1.9-4.5,1.9c-4.6,0-8.3-4.7-8.3-10.4c0-5.7,3.7-10.4,8.3-10.4c2.2,0,4.3,1.1,5.8,3c0.3,0.4,0.8,0.4,1.2,0.1
				c0.4-0.3,0.4-0.8,0.1-1.2c-1.9-2.3-4.4-3.6-7.2-3.6C40.9,39.3,36.4,44.8,36.4,51.5 M2.6,39.3c-0.5,0-0.9,0.4-0.9,0.9v12.2
				c0,0.5,0.4,0.9,0.9,0.9c0.5,0,0.9-0.4,0.9-0.9V41.1h6.6c0,0,1.3,0,2.6,0.7c1.6,0.9,2.4,2.4,2.4,4.6c0,0.5,0,10.9,0,11.4
				c-0.3,3.7-4,4.1-8,4.1c-0.3,0-0.5,0-0.7,0c-0.5,0-0.9,0.4-0.9,0.9c0,0.3,0.1,0.5,0.3,0.7h5.1c2.7-0.4,5.5-1.7,5.8-5.5
				c0-0.2,0-11.4,0-11.5c0-6.9-6.7-7-6.7-7L2.6,39.3L2.6,39.3z M21.2,39.3c-0.5,0-0.9,0.4-0.9,0.9c0,0.5,0.4,0.9,0.9,0.9h4.4v10.5
				c0,0.5,0.4,0.9,0.9,0.9c0.5,0,0.9-0.4,0.9-0.9V41.1h4.4c0.5,0,0.9-0.4,0.9-0.9c0-0.5-0.4-0.9-0.9-0.9L21.2,39.3L21.2,39.3z
				 M61.8,39.3c-0.5,0-0.9,0.4-0.9,0.9c0,0.5,0.4,0.9,0.9,0.9h4.4v10.5c0,0.5,0.4,0.9,0.9,0.9s0.9-0.4,0.9-0.9V41.1h4.4
				c0.5,0,0.9-0.4,0.9-0.9c0-0.5-0.4-0.9-0.9-0.9L61.8,39.3L61.8,39.3z M77.9,39.3c-0.5,0-0.9,0.4-0.9,0.9c0,0.5,0.4,0.9,0.9,0.9
				h5.8V52c0,0.5,0.4,0.9,0.9,0.9c0.5,0,0.9-0.4,0.9-0.9V41.1h5.8c0.5,0,0.9-0.4,0.9-0.9c0-0.5-0.4-0.9-0.9-0.9H77.9z M118.3,40.2
				v12.2c0,0.5,0.4,0.9,0.9,0.9s0.9-0.4,0.9-0.9V40.2c0-0.5-0.4-0.9-0.9-0.9S118.3,39.7,118.3,40.2 M103,38.9c-0.5,0-1,0.3-1.2,0.8
				L97,51.3c-0.2,0.4,0,0.9,0.5,1.1c0.1,0,0.2,0.1,0.3,0.1c0.3,0,0.7-0.2,0.8-0.5l4.4-10.7l4.5,10.7c0.2,0.4,0.7,0.6,1.1,0.5
				c0.4-0.2,0.6-0.7,0.5-1.1l-4.9-11.6C104,39.2,103.5,38.9,103,38.9L103,38.9L103,38.9z M34.8,22c-0.7,0.5-0.9,1.4-0.4,2.1l5.1,7.8
				c0.3,0.4,0.8,0.7,1.3,0.7c0.3,0,0.6-0.1,0.8-0.2c0.7-0.5,0.9-1.4,0.4-2.1l-5.1-7.8c-0.3-0.4-0.8-0.7-1.3-0.7
				C35.3,21.7,35,21.8,34.8,22 M151.1,22c-0.7,0.5-0.9,1.4-0.4,2.1l5.1,7.8c0.3,0.4,0.8,0.7,1.3,0.7c0.3,0,0.6-0.1,0.8-0.2
				c0.7-0.5,0.9-1.4,0.4-2.1l-5.1-7.8c-0.3-0.4-0.8-0.7-1.3-0.7C151.7,21.7,151.4,21.8,151.1,22 M1.5,23v8.1c0,0.8,0.7,1.5,1.5,1.5
				c0.8,0,1.5-0.7,1.5-1.5V23c0-0.8-0.7-1.5-1.5-1.5C2.2,21.5,1.5,22.2,1.5,23 M24.2,23v8.1c0,0.8,0.7,1.5,1.5,1.5
				c0.8,0,1.5-0.7,1.5-1.5V23c0-0.8-0.7-1.5-1.5-1.5C24.9,21.5,24.2,22.2,24.2,23 M96.1,23v8.1c0,0.8,0.7,1.5,1.5,1.5
				c0.8,0,1.5-0.7,1.5-1.5V23c0-0.8-0.7-1.5-1.5-1.5C96.7,21.5,96.1,22.2,96.1,23 M118.4,23v8.1c0,0.8,0.7,1.5,1.5,1.5h14.3
				c0.8,0,1.5-0.7,1.5-1.5s-0.7-1.5-1.5-1.5h-12.8V23c0-0.8-0.7-1.5-1.5-1.5C119.1,21.5,118.4,22.2,118.4,23 M140.6,23v8.1
				c0,0.8,0.7,1.5,1.5,1.5s1.5-0.7,1.5-1.5V23c0-0.8-0.7-1.5-1.5-1.5S140.6,22.2,140.6,23 M83.7,17.6c-0.2,0.8,0.3,1.6,1.1,1.8
				c0.2,0,4.2,1.1,4.2,5.2c0,1.6-1.2,3.1-3.2,4c-2.4,1.1-6.4,1.5-9.8-1.2c-0.7-0.5-1.6-0.4-2.2,0.2c-0.5,0.7-0.4,1.6,0.2,2.1
				c2.3,1.8,5,2.8,7.8,2.8c1.8,0,3.5-0.4,5.2-1.2c3.1-1.5,4.9-4,4.9-6.8c0-5.2-4.3-7.6-6.6-8.1c-0.1,0-0.2,0-0.3,0
				C84.5,16.4,83.9,16.9,83.7,17.6 M3,2.8c-0.8,0-1.5,0.7-1.5,1.5v13.9c0,0.8,0.7,1.5,1.5,1.5c0.8,0,1.5-0.7,1.5-1.5V5.9h7.4
				c0.6,0,5.5,0.2,5.5,5.8c0,1.5-0.4,2.6-1.2,3.4c-1.7,1.7-5.3,1.6-7.2,1.6c-0.3,0-0.6,0-0.8,0c-0.8,0-1.5,0.7-1.5,1.5
				c0,0.8,0.7,1.5,1.5,1.5c0.2,0,0.5,0,0.7,0c2.3,0.1,6.7,0.2,9.4-2.4c1.4-1.4,2.1-3.2,2.1-5.5c0-4.5-2.3-6.7-4.3-7.8
				c-2-1.1-4-1.1-4.2-1.1L3,2.8L3,2.8z M25.8,2.8c-0.8,0-1.5,0.7-1.5,1.5v13.9c0,0.8,0.7,1.5,1.5,1.5c0.8,0,1.5-0.7,1.5-1.5V5.9h7.4
				c0.6,0,5.5,0.2,5.5,5.8c0,1.5-0.4,2.5-1.2,3.3c-1.8,1.8-5.5,1.7-7.5,1.6c-0.3,0-0.6,0-0.8,0c-0.8,0-1.5,0.7-1.5,1.5
				c0,0.8,0.7,1.5,1.5,1.5c0.2,0,0.5,0,0.7,0c2.4,0.1,6.9,0.2,9.7-2.5c1.4-1.4,2.1-3.2,2.1-5.5c0-4.5-2.3-6.7-4.3-7.8
				c-2-1.1-4-1.1-4.2-1.1C34.6,2.8,25.8,2.8,25.8,2.8z M46,17.7c0,8.2,5.6,14.9,12.4,14.9c4.9,0,9.4-3.5,11.4-8.8
				c0.3-0.8-0.1-1.7-0.9-2c-0.8-0.3-1.7,0.1-2,0.9c-1.5,4.2-4.9,6.8-8.5,6.8c-5.2,0-9.4-5.3-9.4-11.8c0-6.5,4.2-11.8,9.4-11.8
				s9.4,5.3,9.4,11.8c0,0.1,0,0.2,0,0.4l0,0.1c0,0.8,0.6,1.5,1.5,1.6c0.8,0,1.5-0.6,1.6-1.5l0-0.1c0-0.2,0-0.3,0-0.5
				c0-8.2-5.6-14.9-12.4-14.9S46,9.5,46,17.7 M97.6,2.8c-0.8,0-1.5,0.7-1.5,1.5v13.9c0,0.8,0.7,1.5,1.5,1.5c0.8,0,1.5-0.7,1.5-1.5
				V5.9h7.4c0,0,1.4,0,2.8,0.7c1.8,0.9,2.7,2.6,2.7,5c0,1.4-0.4,2.5-1.2,3.3c-1.8,1.8-5.5,1.7-7.5,1.7c-0.3,0-0.6,0-0.8,0
				c-0.8,0-1.5,0.7-1.5,1.5c0,0.8,0.7,1.5,1.5,1.5c0.2,0,0.4,0,0.7,0c2.4,0.1,7,0.2,9.7-2.5c1.4-1.4,2.1-3.2,2.1-5.5
				c0-4.5-2.3-6.7-4.3-7.8c-2-1.1-4-1.1-4.2-1.1L97.6,2.8L97.6,2.8z M120,2.8c-0.8,0-1.5,0.7-1.5,1.5v13.9c0,0.8,0.7,1.5,1.5,1.5
				h9.2c0.8,0,1.5-0.7,1.5-1.5c0-0.8-0.7-1.5-1.5-1.5h-7.6V5.9h12.8c0.8,0,1.5-0.7,1.5-1.5s-0.7-1.5-1.5-1.5L120,2.8L120,2.8z
				 M142.1,2.8c-0.8,0-1.5,0.7-1.5,1.5v13.9c0,0.8,0.7,1.5,1.5,1.5s1.5-0.7,1.5-1.5V5.9h7.4c0,0,1.4,0,2.8,0.7
				c1.8,0.9,2.7,2.6,2.7,5c0,1.4-0.4,2.5-1.2,3.3c-1.8,1.8-5.5,1.7-7.5,1.7c-0.3,0-0.6,0-0.8,0c-0.8,0-1.5,0.7-1.5,1.5
				c0,0.8,0.7,1.5,1.5,1.5c0.2,0,0.5,0,0.7,0c2.4,0.1,7,0.2,9.7-2.5c1.4-1.4,2.1-3.2,2.1-5.5c0-4.5-2.3-6.7-4.3-7.8
				c-2-1.1-4-1.1-4.2-1.1L142.1,2.8L142.1,2.8z M75.5,6.6c0,0-0.1,0.1-0.1,0.1c-0.1,0.1-1.7,3.3-0.5,6.4c0.7,1.9,2.3,3.4,4.6,4.3
				c0.2,0.1,0.4,0.1,0.6,0.1c0.6,0,1.2-0.4,1.4-1c0.3-0.8-0.1-1.7-0.9-2c-1.5-0.6-2.5-1.4-2.9-2.5c-0.6-1.6,0.2-3.5,0.3-3.8
				c1.5-2.1,3.5-2.9,6.2-2.4c2.3,0.4,4.2,1.6,4.2,1.6c0.7,0.5,1.7,0.2,2.1-0.5c0.5-0.7,0.2-1.7-0.5-2.1c-0.1-0.1-2.3-1.5-5.2-2
				c-0.8-0.1-1.5-0.2-2.2-0.2C79.8,2.6,77.3,4,75.5,6.6"/>
		</defs>
		<use xlink:href="#SVGID_3_"  style="overflow:visible;fill:#FFFFFF;"/>
		<clipPath id="SVGID_4_">
			<use xlink:href="#SVGID_3_"  style="overflow:visible;"/>
		</clipPath>
		<g class="st2">
			<g>
				<g>
					<defs>
						
							<rect id="SVGID_5_" x="33.4" y="-45.9" transform="matrix(0.342 -0.9397 0.9397 0.342 22.1378 109.1203)" width="111.1" height="169.2"/>
					</defs>
					<use xlink:href="#SVGID_5_"  style="overflow:visible;fill:#FFFFFF;"/>
					<clipPath id="SVGID_6_">
						<use xlink:href="#SVGID_5_"  style="overflow:visible;"/>
					</clipPath>
				</g>
			</g>
		</g>
	</g>
</g>
</svg>
