<?xml version="1.0" encoding="utf-8"?>
<!-- Generator: Adobe Illustrator 15.0.0, SVG Export Plug-In . SVG Version: 6.00 Build 0)  -->
<!DOCTYPE svg PUBLIC "-//W3C//DTD SVG 1.1//EN" "http://www.w3.org/Graphics/SVG/1.1/DTD/svg11.dtd">
<svg version="1.1" id="Layer_2_1_" xmlns="http://www.w3.org/2000/svg" xmlns:xlink="http://www.w3.org/1999/xlink" x="0px" y="0px"
	 width="114px" height="25px" viewBox="83.5 31 114 25" enable-background="new 83.5 31 114 25" xml:space="preserve">
<title>icon-Instagram</title>
<g>
	<path fill="#002C47" d="M87.034,33.104c1.606-1.534,2.555-1.604,2.555-1.604c0.364,0,0.728,0.072,1.093,0.22
		c0.731,0.291,0.801,0.654,0.801,0.654v11.525c0.073,3.209-0.728,4.451-1.677,5.325c-0.292,0.289-0.655,0.437-1.02,0.51
		c-0.146,0-0.221,0-0.294-0.219c0-0.217,0.073-0.438,0.148-0.656c0.291-1.094,0.438-2.26,0.438-3.354l0.073-12.401
		c0,0,0.07-0.218-0.149-0.146c-1.384,1.312-2.188,3.136-2.188,5.03c-0.07,0.877,0.221,1.826,0.731,2.556
		c0.073,0.072,0.146,0.29,0.146,0.438c0,0.146-0.073,0.291-0.218,0.291c0,0,0,0-0.073,0c-1.021-0.291-1.897-0.948-2.262-1.896
		c-0.218-0.44-0.291-0.949-0.363-1.46C84.919,36.096,85.721,34.417,87.034,33.104z M169.751,44.119c0,3.72-2.261,3.646-2.261,3.646
		c-2.116,0.073-2.698-2.187-2.846-4.449c-0.073-1.751,0-3.647,0-3.647s0-0.071-0.073,0c-0.729,1.534-1.241,3.138-1.457,4.814
		c-0.076,0.656-0.147,1.385-0.221,2.041c0,0.148-0.074,0.22-0.146,0.291c-0.731,0.367-1.678,0.075-2.039-0.656
		c-0.077-0.145-0.15-0.291-0.15-0.436c-0.363-0.802-0.584-5.616-0.584-5.908c0-0.29-0.217-0.07-0.217-0.07
		c-1.604,2.697-1.604,6.635-1.604,7.438s-1.387,0.582-1.387,0.582c-1.168-0.071-1.092-0.656-1.092-0.656l-0.076-0.95
		c-0.436,0.732-1.165,1.68-2.334,1.606c-1.75-0.146-2.115-1.896-2.115-2.26c-0.51,1.312-1.822,2.187-3.282,2.26
		c-1.021-0.071-1.896-0.727-2.261-1.678c0,0-0.655,1.751-2.262,1.678c-1.605-0.073-2.918-1.896-2.844-4.302
		c0-1.242,0.145-2.408,0.437-3.573c0,0,0.147-0.22-0.071-0.22c-0.221,0-1.606,0-1.606,0s-0.804,3.136-4.083,7.003
		c0,0,0,1.238,0,2.552c0,2.557-0.291,5.982-3.792,6.274c-2.99-0.221-2.844-2.479-2.844-2.479c-0.073-0.656,0.364-1.897,2.113-3.576
		c1.826-1.679,2.482-2.336,2.482-2.336l-0.073-1.089c-0.583,1.089-1.678,1.746-2.917,1.746c0,0-1.386,0.293-2.482-1.746
		c-0.362,0.653-1.092,1.896-2.333,1.746c-1.167-0.146-2.045-1.092-2.116-2.259c-0.583,1.312-1.824,2.188-3.283,2.259
		c-1.02-0.068-1.895-0.728-2.26-1.746c-0.146-0.365-0.292-0.733-0.44-1.169c0,0.074-0.071,0.146-0.071,0.219
		c-0.364,0.95-1.312,2.628-2.7,2.628c-2.555,0-2.698-4.014-2.698-4.014c-0.729,1.75-2.187,4.084-4.96,4.014
		c-2.772-0.074-3.063-1.023-3.063-1.166c0-0.149-0.073-0.294,0.291-0.732c0.365-0.438,0.583-0.656,0.804-0.656
		c0.218,0,0.583,0.291,0.583,0.291c0.363,0.293,0.802,0.514,1.239,0.586c0.875,0,1.021-0.73,1.095-1.387
		c-0.074-0.803-0.438-1.604-1.095-2.043c-0.656-0.655-1.239-1.094-1.239-1.094c-0.949,1.677-1.752,2.771-2.262,3.72
		c-1.312,2.116-2.625,2.481-3.137,2.407c-0.729-0.072-1.385-0.803-1.385-2.919c0-2.113,0.147-5.687,0.147-5.832
		c0-0.147-0.147-0.074-0.147-0.074c-2.189,2.917-2.917,8.608-2.917,8.68c0,0.073-0.219,0.22-0.438,0.22s0.072,0-0.875-0.072
		c-0.947-0.074-0.875-1.825-0.875-1.825v-8.388c0-0.292,0.292-0.439,1.168-0.147c0.875,0.291,0.875,0.511,0.875,0.511v4.887
		c2.262-6.71,4.01-5.689,5.032-5.18c1.022,0.511,0.877,1.24,0.877,1.24s-0.074,3.721-0.147,5.033s0.147,1.823,0.437,1.896
		c0.731,0.146,3.356-4.815,3.356-4.815c-0.873-0.947-0.803-2.334,0.073-3.208c0.073-0.072,0.147-0.146,0.292-0.216
		c0.438-0.293,0.874-0.441,1.386-0.513c0,0,1.166-0.073,1.166,0.949c0,1.094-1.166,2.406-1.166,2.406
		c2.334,1.677,3.429,2.553,3.573,3.793c0.073,0.362,0,0.653-0.072,1.021c0.949-0.731,1.605-1.823,1.751-3.063v-5.324h-2.41
		c0,0-0.219,0-0.219-0.438s0.146-0.875,0.438-1.24h2.336c0,0,0.071-2.409,0.071-2.771c0.072-0.583,0.437-0.657,1.46-0.363
		c1.022,0.29,1.022,0.51,1.022,0.51l-0.148,2.7c0,0,2.555,0.146,2.919,0.146c0.364,0,0.438,0.147,0.364,0.729
		c0,0.293-0.147,0.584-0.437,0.731l-2.92,0.07l-0.218,6.2c0,0.947,0.073,3.209,0.95,3.209c1.24,0.072,1.967-2.771,1.967-2.771l0,0
		c0-0.511,0-1.021,0.073-1.532c0.219-2.263,1.241-4.888,3.574-4.888c0.95,0,1.75,0.51,2.187,1.387V37.85c0,0-0.07-0.584,0.95-0.44
		c1.021,0.147,1.314,0.513,1.314,0.878c0,0-0.147,3.938-0.073,6.274c0.147,1.385,0.363,2.186,1.021,2.113
		c0.584-0.071,1.023-0.877,1.242-1.604c-0.877-7.148,3.063-8.023,3.063-8.023c1.021-0.073,1.968,0.437,2.554,1.313V37.85
		c0,0-0.073-0.659,0.874-0.44c0.292,0.074,0.511,0.147,0.804,0.22c0.437,0.147,0.509,0.221,0.509,0.657
		c0,0.438-0.072,7.075-0.072,7.075c1.165-1.604,2.043-3.5,2.555-5.396c-0.438-0.293-0.656-0.805-0.656-1.315
		c-0.073-0.874,0.583-1.604,1.458-1.677h0.073c1.093,0,1.166,1.021,1.021,1.677c0,0,0.951-0.146,1.753-0.363
		c0.8-0.22,1.895-0.363,1.965,0.949c0,0.291,0,0.583-0.144,0.802c-0.292,1.312-0.511,2.627-0.511,3.939
		c0.074,1.164,0.438,2.844,1.312,2.697c0.875-0.145,1.167-1.46,1.167-1.46c-0.221-1.02-0.292-2.113-0.148-3.209
		c0.221-2.26,1.242-4.884,3.573-4.884c0.878,0,1.752,0.51,2.117,1.312v-0.51c0,0-0.072-0.583,0.949-0.439
		c1.02,0.147,1.311,0.512,1.311,0.876c0,0-0.143,3.938-0.07,6.201c0.146,1.312,0.363,2.113,1.02,2.113
		c0.657,0,1.24-1.166,1.531-2.041v-0.366v-6.639c0-0.216,0.222-0.363,0.365-0.363l0.803,0.147c1.095,0.145,0.95,0.581,0.95,0.581
		v3.721c0.363-1.459,0.948-2.844,1.604-4.157c0.291-0.584,1.386-0.219,1.386-0.219c0.657,0.145,1.092,0.73,1.165,1.312
		c0,1.752,0.22,4.522,0.22,4.522c0,0.075,0.073,0.075,0.073,0.075v-0.075c0.291-1.896,0.874-3.792,1.677-5.544
		c0.437-0.802,1.606-0.216,1.606-0.216c1.458,0.51,1.237,1.311,1.237,1.311c-0.437,7.297,0.438,7.73,1.022,7.804
		c0.584,0.075,0.802-0.656,0.946-0.945c0.15-0.295,0.294-1.021,0.367-1.314c0.071-0.147,0.219-0.29,0.361-0.29
		C169.46,43.828,169.751,43.899,169.751,44.119z M121.608,38.576c-0.509,0-1.678,0.363-1.896,3.646
		c-0.218,3.284,0.656,4.087,1.387,4.231c0.728,0.147,2.042-1.095,2.115-4.522C123.286,38.503,121.608,38.576,121.608,38.576
		L121.608,38.576z M131.894,38.648c-0.51,0-1.75,0.438-2.042,3.646c-0.219,3.283,0.656,4.158,1.385,4.231
		c0.729,0.073,2.042-1.095,2.115-4.596C133.426,38.431,131.894,38.648,131.894,38.648L131.894,38.648z M133.572,48.787
		c-2.919,2.479-3.135,4.303-3.135,4.303s-0.292,1.459,1.092,1.532c1.678,0.146,1.97-1.895,1.97-3.646
		C133.572,50.1,133.572,48.787,133.572,48.787L133.572,48.787z M149.474,38.721c-0.512,0-1.68,0.365-1.898,3.648
		c-0.218,3.281,0.657,4.084,1.387,4.23c0.73,0.145,2.045-1.094,2.116-4.523C151.15,38.648,149.474,38.721,149.474,38.721z"/>
	<g>
		<path fill="#365888" d="M180.253,31.748h8.44c2.6,0,3.571,0.26,4.544,0.778c0.978,0.519,1.689,1.299,2.21,2.208
			c0.517,0.973,0.777,1.883,0.777,4.545v8.44c0,2.598-0.261,3.572-0.777,4.546c-0.521,0.976-1.301,1.688-2.21,2.207
			c-0.973,0.521-1.883,0.779-4.544,0.779h-8.44c-2.598,0-3.572-0.259-4.546-0.779c-0.976-0.52-1.688-1.299-2.208-2.207
			c-0.519-0.974-0.777-1.885-0.777-4.546v-8.44c0-2.598,0.259-3.572,0.777-4.545c0.521-0.974,1.301-1.689,2.208-2.208
			C176.681,32.008,177.655,31.748,180.253,31.748z"/>
		<g>
			<g>
				<g>
					<g>
						<defs>
							<path id="SVGID_1_" d="M180.253,31.748h8.44c2.6,0,3.571,0.26,4.544,0.778c0.978,0.519,1.689,1.299,2.21,2.208
								c0.517,0.973,0.777,1.883,0.777,4.545v8.44c0,2.598-0.261,3.572-0.777,4.546c-0.521,0.976-1.301,1.688-2.21,2.207
								c-0.973,0.521-1.883,0.779-4.544,0.779h-8.44c-2.598,0-3.572-0.259-4.546-0.779c-0.976-0.52-1.688-1.299-2.208-2.207
								c-0.519-0.974-0.777-1.885-0.777-4.546v-8.44c0-2.598,0.259-3.572,0.777-4.545c0.521-0.974,1.301-1.689,2.208-2.208
								C176.681,32.008,177.655,31.748,180.253,31.748z"/>
						</defs>
						<clipPath id="SVGID_2_">
							<use xlink:href="#SVGID_1_"  overflow="visible"/>
						</clipPath>
						<g clip-path="url(#SVGID_2_)">
							<g>
								<rect x="172.721" y="31.748" fill="#365888" width="23.438" height="23.439"/>
								<g>
									<g>
										<g>
											<g>
												<defs>
													<rect id="SVGID_3_" x="172.721" y="31.748" width="23.438" height="23.439"/>
												</defs>
												<clipPath id="SVGID_4_">
													<use xlink:href="#SVGID_3_"  overflow="visible"/>
												</clipPath>
												<g clip-path="url(#SVGID_4_)">
													<rect x="166.877" y="25.839" fill="#365888" width="35.193" height="35.192"/>
												</g>
											</g>
										</g>
									</g>
								</g>
							</g>
							<g>
								<defs>
									<path id="SVGID_5_" d="M180.253,31.748h8.44c2.6,0,3.571,0.26,4.544,0.778c0.978,0.519,1.689,1.299,2.21,2.208
										c0.517,0.973,0.777,1.883,0.777,4.545v8.44c0,2.598-0.261,3.572-0.777,4.546c-0.521,0.976-1.301,1.688-2.21,2.207
										c-0.973,0.521-1.883,0.779-4.544,0.779h-8.44c-2.598,0-3.572-0.259-4.546-0.779c-0.976-0.52-1.688-1.299-2.208-2.207
										c-0.519-0.974-0.777-1.885-0.777-4.546v-8.44c0-2.598,0.259-3.572,0.777-4.545c0.521-0.974,1.301-1.689,2.208-2.208
										C176.681,32.008,177.655,31.748,180.253,31.748z"/>
								</defs>
								<clipPath id="SVGID_6_">
									<use xlink:href="#SVGID_5_"  overflow="visible"/>
								</clipPath>
								<g clip-path="url(#SVGID_6_)">
									<path fill="#002C47" d="M180.253,31.748h8.44c2.6,0,3.571,0.26,4.544,0.778c0.978,0.519,1.689,1.299,2.21,2.208
										c0.517,0.973,0.777,1.883,0.777,4.545v8.44c0,2.598-0.261,3.572-0.777,4.546c-0.521,0.976-1.301,1.688-2.21,2.207
										c-0.973,0.521-1.883,0.779-4.544,0.779h-8.44c-2.598,0-3.572-0.259-4.546-0.779c-0.976-0.52-1.688-1.299-2.208-2.207
										c-0.519-0.974-0.777-1.885-0.777-4.546v-8.44c0-2.598,0.259-3.572,0.777-4.545c0.521-0.974,1.301-1.689,2.208-2.208
										C176.681,32.008,177.655,31.748,180.253,31.748z"/>
									<g>
										<g>
											<g>
												<g>
													<defs>
														<path id="SVGID_7_" d="M180.253,31.748h8.44c2.6,0,3.571,0.26,4.544,0.778c0.978,0.519,1.689,1.299,2.21,2.208
															c0.517,0.973,0.777,1.883,0.777,4.545v8.44c0,2.598-0.261,3.572-0.777,4.546c-0.521,0.976-1.301,1.688-2.21,2.207
															c-0.973,0.521-1.883,0.779-4.544,0.779h-8.44c-2.598,0-3.572-0.259-4.546-0.779c-0.976-0.52-1.688-1.299-2.208-2.207
															c-0.519-0.974-0.777-1.885-0.777-4.546v-8.44c0-2.598,0.259-3.572,0.777-4.545c0.521-0.974,1.301-1.689,2.208-2.208
															C176.681,32.008,177.655,31.748,180.253,31.748z"/>
													</defs>
													<clipPath id="SVGID_8_">
														<use xlink:href="#SVGID_7_"  overflow="visible"/>
													</clipPath>
													<g clip-path="url(#SVGID_8_)">
														<g>
															<rect x="172.721" y="31.748" fill="#002C47" width="23.438" height="23.439"/>
															<g>
																<g>
																	<g>
																		<g>
																			<defs>
																				<rect id="SVGID_9_" x="172.721" y="31.748" width="23.438" height="23.439"/>
																			</defs>
																			<clipPath id="SVGID_10_">
																				<use xlink:href="#SVGID_9_"  overflow="visible"/>
																			</clipPath>
																			<g clip-path="url(#SVGID_10_)">
																				<rect x="166.877" y="25.839" fill="#002C47" width="35.193" height="35.192"/>
																			</g>
																		</g>
																	</g>
																</g>
															</g>
														</g>
														<g>
															<defs>
																<path id="SVGID_11_" d="M180.253,31.748h8.44c2.6,0,3.571,0.26,4.544,0.778c0.978,0.519,1.689,1.299,2.21,2.208
																	c0.517,0.973,0.777,1.883,0.777,4.545v8.44c0,2.598-0.261,3.572-0.777,4.546c-0.521,0.976-1.301,1.688-2.21,2.207
																	c-0.973,0.521-1.883,0.779-4.544,0.779h-8.44c-2.598,0-3.572-0.259-4.546-0.779
																	c-0.976-0.52-1.688-1.299-2.208-2.207c-0.519-0.974-0.777-1.885-0.777-4.546v-8.44c0-2.598,0.259-3.572,0.777-4.545
																	c0.521-0.974,1.301-1.689,2.208-2.208C176.681,32.008,177.655,31.748,180.253,31.748z"/>
															</defs>
															<clipPath id="SVGID_12_">
																<use xlink:href="#SVGID_11_"  overflow="visible"/>
															</clipPath>
															<g clip-path="url(#SVGID_12_)">
																<path fill="#FFFFFF" d="M184.474,39.279c-2.339,0-4.157,1.883-4.157,4.155c0,2.274,1.883,4.156,4.157,4.156
																	c2.338,0,4.156-1.882,4.156-4.156l0,0C188.693,41.163,186.812,39.279,184.474,39.279L184.474,39.279z
																	 M184.474,46.161c-1.494,0-2.729-1.231-2.729-2.728c0-1.492,1.233-2.726,2.729-2.726
																	c1.492,0,2.727,1.233,2.727,2.726l0,0C187.2,44.93,185.967,46.161,184.474,46.161z"/>
																<path fill="#FFFFFF" d="M188.824,38.111c0.538,0,0.976,0.436,0.976,0.974c0,0.538-0.438,0.974-0.976,0.974
																	c-0.537,0-0.973-0.436-0.973-0.974C187.852,38.547,188.287,38.111,188.824,38.111z"/>
																<path fill="#FFFFFF" d="M192.59,40.124c0-0.715-0.129-1.363-0.389-2.013c-0.455-1.104-1.301-1.948-2.403-2.403
																	c-0.648-0.259-1.3-0.39-2.012-0.39c-0.847-0.064-1.169-0.064-3.377-0.064c-2.209,0-2.47,0-3.377,0.064
																	c-0.65,0-1.364,0.131-2.014,0.39c-1.104,0.456-1.947,1.299-2.401,2.403c-0.26,0.65-0.391,1.298-0.391,2.013
																	c-0.065,0.845-0.065,1.171-0.065,3.377c0,2.208,0,2.468,0.065,3.374c0,0.651,0.131,1.366,0.391,2.015
																	c0.454,1.104,1.298,1.948,2.401,2.402c0.649,0.261,1.298,0.39,2.014,0.39c0.845,0.066,1.168,0.066,3.377,0.066
																	c2.207,0,2.465,0,3.377-0.066c0.647,0,1.363-0.129,2.012-0.39c1.102-0.454,1.947-1.299,2.403-2.402
																	c0.26-0.648,0.389-1.299,0.389-2.015c0.064-0.843,0.064-1.166,0.064-3.374
																	C192.654,41.295,192.654,40.968,192.59,40.124z M191.16,46.747L191.16,46.747c0,0.52-0.128,1.037-0.322,1.56
																	c-0.261,0.715-0.846,1.296-1.56,1.558c-0.454,0.195-0.973,0.26-1.491,0.26c-0.847,0.064-1.107,0.064-3.312,0.064
																	c-2.208,0-2.403,0-3.312-0.064c-0.52,0-1.039-0.13-1.494-0.26c-0.713-0.262-1.297-0.843-1.558-1.558
																	c-0.196-0.456-0.26-0.975-0.26-1.494c-0.064-0.844-0.064-1.104-0.064-3.311s0-2.403,0.064-3.313
																	c0-0.519,0.13-1.037,0.26-1.558c0.26-0.715,0.845-1.299,1.558-1.56c0.455-0.194,0.975-0.258,1.494-0.258
																	c0.844-0.065,1.104-0.065,3.312-0.065c2.205,0,2.4,0,3.312,0.065c0.519,0,1.037,0.13,1.491,0.258
																	c0.714,0.261,1.299,0.844,1.56,1.56c0.195,0.456,0.26,0.976,0.26,1.494c0.062,0.845,0.062,1.104,0.062,3.311
																	C191.16,45.642,191.16,45.904,191.16,46.747z"/>
															</g>
														</g>
													</g>
												</g>
											</g>
										</g>
									</g>
								</g>
							</g>
						</g>
					</g>
				</g>
			</g>
		</g>
	</g>
</g>
</svg>
