<svg id="Layer_3" data-name="Layer 3" xmlns="http://www.w3.org/2000/svg" width="113.73" height="28.818" viewBox="0 0 113.73 28.818">
  <defs>
    <style>
      .cls-1 {
        fill: #002c47;
      }

      .cls-2 {
        fill: #fff;
      }
    </style>
  </defs>
  <title>icon-Linkedin</title>
  <g>
    <g>
      <polygon class="cls-1" points="0 4.262 4.446 4.262 4.446 20.454 12.676 20.454 12.676 24.556 0 24.556 0 4.262"/>
      <path class="cls-1" d="M16.474,55.889h4.273V69.642H16.474Zm2.137-6.836a2.477,2.477,0,1,1-2.478,2.477,2.479,2.479,0,0,1,2.478-2.477" transform="translate(-1.834 -45.091)"/>
      <polygon class="cls-1" points="36.774 4.261 41.045 4.261 41.045 16.39 45.884 10.792 51.121 10.792 45.517 17.159 51.004 24.556 45.634 24.556 41.101 17.758 41.045 17.758 41.045 24.556 36.774 24.556 36.774 4.261"/>
      <path class="cls-1" d="M23.11,55.891h4.1v1.88h.057a4.487,4.487,0,0,1,4.045-2.222c4.33,0,5.127,2.849,5.127,6.551v7.542H32.168V62.955c0-1.6-.029-3.646-2.223-3.646-2.221,0-2.562,1.738-2.562,3.532v6.8H23.11Z" transform="translate(-1.834 -45.091)"/>
      <path class="cls-1" d="M61.949,61.167a2.562,2.562,0,0,0-2.622-2.621,2.848,2.848,0,0,0-3.018,2.621Zm3.617,6.094A7.522,7.522,0,0,1,59.726,70c-4.272,0-7.69-2.85-7.69-7.265s3.418-7.263,7.69-7.263c3.991,0,6.5,2.848,6.5,7.263v1.339H56.309a3.188,3.188,0,0,0,3.218,2.677,3.645,3.645,0,0,0,3.048-1.681Z" transform="translate(-1.834 -45.091)"/>
      <path class="cls-1" d="M75.12,59.215a3.5,3.5,0,1,0,3.42,3.5,3.237,3.237,0,0,0-3.42-3.5M82.472,69.64H78.54V67.816h-.055a5.374,5.374,0,0,1-4.246,2.165c-4.1,0-6.808-2.961-6.808-7.149,0-3.846,2.392-7.377,6.323-7.377a5.162,5.162,0,0,1,4.388,1.822H78.2V49.352h4.275Z" transform="translate(-1.834 -45.091)"/>
    </g>
    <path class="cls-1" d="M113.431,45.091H88.872a2.1,2.1,0,0,0-2.127,2.077V71.83a2.1,2.1,0,0,0,2.127,2.079h24.559a2.109,2.109,0,0,0,2.133-2.079V47.168A2.108,2.108,0,0,0,113.431,45.091Z" transform="translate(-1.834 -45.091)"/>
    <path class="cls-2" d="M91.018,55.9h4.274V69.648H91.018Zm2.138-6.836a2.478,2.478,0,1,1-2.479,2.477,2.479,2.479,0,0,1,2.479-2.477" transform="translate(-1.834 -45.091)"/>
    <path class="cls-2" d="M97.973,55.9h4.1v1.879h.057a4.492,4.492,0,0,1,4.044-2.221c4.329,0,5.128,2.849,5.128,6.551v7.544H107.03V62.96c0-1.595-.029-3.646-2.221-3.646-2.224,0-2.565,1.737-2.565,3.531v6.8H97.973Z" transform="translate(-1.834 -45.091)"/>
  </g>
</svg>
