<?xml version="1.0" encoding="utf-8"?>
<!-- Generator: Adobe Illustrator 15.0.0, SVG Export Plug-In  -->
<!DOCTYPE svg PUBLIC "-//W3C//DTD SVG 1.1//EN" "http://www.w3.org/Graphics/SVG/1.1/DTD/svg11.dtd" [
	<!ENTITY ns_flows "http://ns.adobe.com/Flows/1.0/">
]>
<svg version="1.1"
	 xmlns="http://www.w3.org/2000/svg" xmlns:xlink="http://www.w3.org/1999/xlink" xmlns:a="http://ns.adobe.com/AdobeSVGViewerExtensions/3.0/"
	 x="0px" y="0px" width="119px" height="29px" viewBox="-0.976 -1.004 119 29"
	 overflow="visible" enable-background="new -0.976 -1.004 119 29" xml:space="preserve">
<defs>
</defs>
<path fill="#002C47" d="M70.444,24.792h3.035V7.92h-3.035v12.86c-2.184,2.545-2.732,0.645-2.732-0.312V7.92h-3.037v13.147
	c0,2.146,0.537,3.516,1.9,3.732c0.91,0.143,2.223,0,3.869-2.012v2V24.792z M45.913,24.792h3.422v-9.055l4.068-13.495h-3.42
	l-2.361,8.48l-2.363-8.48h-3.422l4.076,13.516V24.792z M57.805,7.73L57.805,7.73c2.504,0.007,4.533,2.036,4.539,4.54v7.983
	c-0.006,2.504-2.035,4.531-4.539,4.539l0,0c-2.504-0.008-4.533-2.035-4.541-4.539V12.27C53.272,9.766,55.301,7.737,57.805,7.73z
	 M56.35,20.661c0.004,0.801,0.654,1.449,1.455,1.449l0,0c0.799-0.002,1.447-0.65,1.449-1.451V11.89
	c-0.002-0.8-0.65-1.448-1.449-1.45l0,0c-0.801,0.002-1.447,0.65-1.451,1.45L56.35,20.661z"/>
<path fill="#002C47" d="M96.612,24.792h3.039v-1.793c0.695,1.18,1.992,1.873,3.359,1.793c3.064-0.354,2.506-4.416,2.506-4.416
	v-8.652c0-2.854-1.01-3.994-2.793-3.994c-1.219,0.148-2.326,0.781-3.072,1.756V2.243h-3.039V24.792z M99.647,21.304V11.239
	c0.354-0.493,0.922-0.79,1.529-0.8c1.426,0.095,1.283,1.9,1.283,1.9s-0.023,6.679-0.023,7.962c0,1.285-0.5,1.734-1.332,1.76
	c-0.566-0.047-1.09-0.318-1.453-0.758H99.647z"/>
<path fill="#002C47" d="M90.875,24.792h3.035V7.92h-3.035v12.86c-2.186,2.545-2.734,0.645-2.734-0.312V7.92h-3.035v13.147
	c0,2.146,0.535,3.516,1.9,3.732c0.908,0.143,2.221,0,3.867-2.012L90.875,24.792z"/>
<polygon fill="#002C47" points="77.665,24.792 81.086,24.792 81.086,5.461 84.672,5.461 84.672,2.243 74.081,2.243 74.081,5.461 
	77.665,5.461 "/>
<path fill="#002C47" d="M112.491,7.73L112.491,7.73c2.504,0.007,4.533,2.035,4.541,4.54v4.565h-5.99v3.826
	c0.002,0.799,0.65,1.447,1.449,1.449l0,0c0.801-0.002,1.447-0.65,1.449-1.451v-1.875h3.092v1.469
	c-0.008,2.504-2.037,4.531-4.541,4.539l0,0c-2.504-0.008-4.533-2.035-4.539-4.539V12.27C107.958,9.766,109.987,7.737,112.491,7.73z
	 M113.94,14.268V11.89c-0.002-0.8-0.648-1.448-1.449-1.45l0,0c-0.801,0.002-1.447,0.65-1.449,1.45v2.377H113.94z"/>
<path fill="#002C47" d="M21.459,0.002c3.357,0,7.799,0.048,11.08,0.353c2.621,0.243,3.275,0.635,3.965,1.261
	c1.787,1.62,2.186,6.005,2.246,10.367c0.012,0.94,0.012,1.882,0,2.821c-0.061,4.363-0.459,8.748-2.246,10.367
	c-0.689,0.627-1.344,1.018-3.965,1.262c-3.281,0.305-7.723,0.348-11.08,0.354c-1.387,0-2.773,0-4.158,0
	c-3.359-0.006-7.801-0.049-11.08-0.354c-2.621-0.244-3.277-0.635-3.967-1.262c-1.803-1.633-2.193-6.08-2.246-10.48
	c-0.01-0.827-0.012-1.654-0.002-2.48c0.049-4.437,0.43-8.945,2.248-10.594C2.944,0.992,3.6,0.599,6.221,0.356
	c3.279-0.3,7.721-0.348,11.08-0.353C18.686,0,20.073,0,21.459,0.002z"/>
<polygon fill="#FFFFFF" points="15.586,7.823 15.586,19.319 25.366,13.394 "/>
</svg>
